<svg width="8" height="14" viewBox="0 0 8 14" fill="none" xmlns="http://www.w3.org/2000/svg">
<path d="M7.707 0.635987C7.89447 0.823515 7.99978 1.07782 7.99978 1.34299C7.99978 1.60815 7.89447 1.86246 7.707 2.04999L2.757 6.99999L7.707 11.95C7.88916 12.1386 7.98995 12.3912 7.98767 12.6534C7.98539 12.9156 7.88023 13.1664 7.69482 13.3518C7.50941 13.5372 7.2586 13.6424 6.9964 13.6447C6.7342 13.6469 6.4816 13.5461 6.293 13.364L0.635998 7.70699C0.448527 7.51946 0.343212 7.26515 0.343212 6.99999C0.343212 6.73482 0.448527 6.48052 0.635998 6.29299L6.293 0.635987C6.48053 0.448516 6.73483 0.343201 7 0.343201C7.26516 0.343201 7.51947 0.448516 7.707 0.635987Z" fill="#0779E4"/>
</svg>
