<svg width="48" height="48" viewBox="0 0 48 48" fill="none" xmlns="http://www.w3.org/2000/svg">
<g filter="url(#filter0_d_62_1137)">
<rect x="4" y="4" width="40" height="40" rx="20" fill="white" shape-rendering="crispEdges"/>
<rect x="4.25" y="4.25" width="39.5" height="39.5" rx="19.75" stroke="#B3DAFF" stroke-width="0.5" shape-rendering="crispEdges"/>
<g clip-path="url(#clip0_62_1137)">
<path d="M26.9331 33.0996L22.9788 31.2616C22.7172 31.1396 22.6031 30.8282 22.7248 30.5657L25.5229 24.5458C25.6446 24.2836 25.9565 24.1698 26.2183 24.2915L30.1726 26.1301C30.4347 26.2517 30.5484 26.5632 30.4269 26.8252L27.6285 32.8452C27.5066 33.1074 27.195 33.2209 26.9331 33.0996L26.9331 33.0996ZM17.3906 32.4427L14.7655 26.3453C14.6512 26.0798 14.774 25.7716 15.0391 25.6575L16.3389 25.0978L17.963 31.2013C18.1189 31.7848 18.7177 32.1326 19.3016 31.9773L20.5961 31.6326L18.0787 32.7167C17.8132 32.8308 17.505 32.7081 17.3907 32.4426L17.3906 32.4427ZM18.5146 31.0546L16.8074 24.6391C16.733 24.3597 16.8997 24.0728 17.1786 23.9986L18.3071 23.6985L18.1714 24.7088C18.0909 25.3069 18.5105 25.8581 19.1093 25.9388L21.7567 26.2956L20.6791 29.9258C20.568 30.3 20.6669 30.687 20.9069 30.9599L19.155 31.4258C18.8759 31.5002 18.5889 31.334 18.5147 31.0547L18.5146 31.0546ZM22.1105 30.8967L21.5792 30.7388C21.3018 30.6563 21.144 30.3652 21.2263 30.0879L23.1155 23.7238C23.198 23.4465 23.4896 23.2886 23.7662 23.3707L25.3938 23.8543L25.394 23.854L25.3984 23.8554L25.3938 23.8542C25.2249 23.9655 25.0905 24.1217 25.0056 24.3053L22.2071 30.3259C22.1242 30.504 22.0908 30.7012 22.1106 30.8966L22.1105 30.8967ZM21.9212 25.7421L19.1856 25.3734C18.8993 25.3346 18.6981 25.0709 18.7366 24.7844L19.6231 18.2051C19.6617 17.9188 19.9258 17.7176 20.2114 17.756L24.5337 18.3385C24.8197 18.3772 25.0212 18.6412 24.9824 18.9272L24.4371 22.9749L23.9285 22.8239C23.3493 22.6517 22.7405 22.9827 22.5688 23.5613L21.9213 25.7421H21.9212ZM31.8166 25.4035L31.5333 24.7809L32.9949 24.1176L33.2774 24.7406L31.8166 25.4035ZM31.4513 24.3174L30.1703 21.4962C30.6191 21.3893 31.0436 21.1983 31.4213 20.9333L32.6997 23.751L31.4513 24.3174V24.3174ZM28.1931 20.8738C26.5913 20.242 25.8043 18.4291 26.4362 16.8269C27.0682 15.2256 28.8816 14.4382 30.4831 15.0699C32.0851 15.702 32.8718 17.5154 32.2403 19.1176C31.608 20.719 29.7948 21.5061 28.193 20.8738H28.1931ZM31.5672 18.8512C32.0529 17.6212 31.4485 16.2287 30.2176 15.7433C28.9874 15.2578 27.5949 15.8622 27.109 17.0926C26.6236 18.3231 27.2281 19.7161 28.4589 20.2012C29.6894 20.6868 31.0818 20.0824 31.5672 18.8512L31.5672 18.8512ZM30.3912 18.1887C30.4678 17.3079 29.8977 16.5185 29.0757 16.2882C29.2265 16.2596 29.3843 16.2508 29.545 16.2647C30.4931 16.3467 31.1971 17.1823 31.1152 18.1306C31.034 19.0658 30.2201 19.763 29.2884 19.7038C29.8887 19.4507 30.3315 18.8823 30.3912 18.1887H30.3912Z" fill="#0779E4"/>
</g>
</g>
<defs>
<filter id="filter0_d_62_1137" x="0" y="0" width="48" height="48" filterUnits="userSpaceOnUse" color-interpolation-filters="sRGB">
<feFlood flood-opacity="0" result="BackgroundImageFix"/>
<feColorMatrix in="SourceAlpha" type="matrix" values="0 0 0 0 0 0 0 0 0 0 0 0 0 0 0 0 0 0 127 0" result="hardAlpha"/>
<feOffset/>
<feGaussianBlur stdDeviation="2"/>
<feComposite in2="hardAlpha" operator="out"/>
<feColorMatrix type="matrix" values="0 0 0 0 0.027451 0 0 0 0 0.47451 0 0 0 0 0.894118 0 0 0 1 0"/>
<feBlend mode="normal" in2="BackgroundImageFix" result="effect1_dropShadow_62_1137"/>
<feBlend mode="normal" in="SourceGraphic" in2="effect1_dropShadow_62_1137" result="shape"/>
</filter>
<clipPath id="clip0_62_1137">
<rect width="20" height="20" fill="white" transform="translate(14 14)"/>
</clipPath>
</defs>
</svg>
