<svg width="25" height="25" viewBox="0 0 25 25" fill="none" xmlns="http://www.w3.org/2000/svg">
<circle cx="12.5" cy="12.5" r="12.5" fill="#F7FCFF"/>
<rect width="12.5" height="12.5" transform="translate(6.25 6.25)" fill="#F7FCFF"/>
<mask id="mask0_565_931" style="mask-type:alpha" maskUnits="userSpaceOnUse" x="6" y="7" width="13" height="11">
<path d="M10.7276 10.7896C10.7276 11.5087 10.1679 12.0917 9.47762 12.0917C8.78729 12.0917 8.22767 11.5087 8.22767 10.7896C8.22767 10.0705 8.78729 9.48759 9.47762 9.48759C10.1679 9.48759 10.7276 10.0705 10.7276 10.7896Z" fill="#B4DBFF"/>
<path fill-rule="evenodd" clip-rule="evenodd" d="M6.25031 8.5938C6.25031 7.8747 6.80993 7.29175 7.50026 7.29175H17.4999C18.1902 7.29175 18.7498 7.8747 18.7498 8.5938V16.4061C18.7498 17.1252 18.1902 17.7082 17.4999 17.7082H16.6748C16.672 17.7082 16.6693 17.7082 16.6666 17.7082H7.78513C7.78278 17.7082 7.78042 17.7082 7.77807 17.7082H7.50026C6.80993 17.7082 6.25031 17.1252 6.25031 16.4061V8.5938ZM7.50026 8.26829H17.4999C17.6724 8.26829 17.8124 8.41402 17.8124 8.5938V12.6511L15.0967 9.89587L10.4765 14.5833L9.11552 13.2025L7.18777 15.1583V8.5938C7.18777 8.41402 7.32767 8.26829 7.50026 8.26829Z" fill="#B4DBFF"/>
</mask>
<g mask="url(#mask0_565_931)">
<rect x="6.25024" y="6.24976" width="12.4995" height="12.4997" fill="#B4DBFF"/>
</g>
</svg>
