<svg width="20" height="21" viewBox="0 0 20 21" fill="none" xmlns="http://www.w3.org/2000/svg">
<path d="M4.99998 18.8333C4.54165 18.8333 4.14942 18.6702 3.82331 18.3441C3.4972 18.018 3.33387 17.6255 3.33331 17.1666V8.83325C3.33331 8.37492 3.49665 7.9827 3.82331 7.65659C4.14998 7.33048 4.5422 7.16714 4.99998 7.16659H5.83331V5.49992C5.83331 4.34714 6.2397 3.36464 7.05248 2.55242C7.86526 1.7402 8.84776 1.33381 9.99998 1.33325C11.1522 1.3327 12.135 1.73909 12.9483 2.55242C13.7616 3.36575 14.1678 4.34825 14.1666 5.49992V7.16659H15C15.4583 7.16659 15.8508 7.32992 16.1775 7.65659C16.5041 7.98325 16.6672 8.37548 16.6666 8.83325V17.1666C16.6666 17.6249 16.5036 18.0174 16.1775 18.3441C15.8514 18.6708 15.4589 18.8338 15 18.8333H4.99998ZM4.99998 17.1666H15V8.83325H4.99998V17.1666ZM9.99998 14.6666C10.4583 14.6666 10.8508 14.5035 11.1775 14.1774C11.5041 13.8513 11.6672 13.4588 11.6666 12.9999C11.6661 12.541 11.503 12.1488 11.1775 11.8233C10.8519 11.4977 10.4594 11.3344 9.99998 11.3333C9.54053 11.3321 9.14831 11.4955 8.82331 11.8233C8.49831 12.151 8.33498 12.5433 8.33331 12.9999C8.33165 13.4566 8.49498 13.8491 8.82331 14.1774C9.15165 14.5058 9.54387 14.6688 9.99998 14.6666ZM7.49998 7.16659H12.5V5.49992C12.5 4.80547 12.2569 4.2152 11.7708 3.72909C11.2847 3.24297 10.6944 2.99992 9.99998 2.99992C9.30554 2.99992 8.71526 3.24297 8.22915 3.72909C7.74304 4.2152 7.49998 4.80547 7.49998 5.49992V7.16659Z" fill="#0779E4"/>
</svg>
