<svg width="20" height="20" viewBox="0 0 20 20" fill="none" xmlns="http://www.w3.org/2000/svg">
<path fill-rule="evenodd" clip-rule="evenodd" d="M2.16841 7.05969C2.16841 5.18734 2.99352 3.39168 4.46223 2.06773C5.93094 0.743786 7.92293 0 10 0C12.0771 0 14.0691 0.743786 15.5378 2.06773C17.0065 3.39168 17.8316 5.18734 17.8316 7.05969V10.8558L19.87 14.5309C19.9639 14.7 20.0082 14.888 19.9988 15.0769C19.9893 15.2658 19.9265 15.4494 19.8162 15.6103C19.7059 15.7712 19.5518 15.904 19.3685 15.9961C19.1853 16.0881 18.9789 16.1365 18.7691 16.1364H14.3342C14.0854 17.002 13.5247 17.7685 12.7402 18.3158C11.9558 18.863 10.9919 19.1599 10 19.1599C9.00808 19.1599 8.04423 18.863 7.25977 18.3158C6.47531 17.7685 5.91464 17.002 5.66578 16.1364H1.23086C1.02106 16.1365 0.814736 16.0881 0.631483 15.9961C0.44823 15.904 0.294133 15.7712 0.183827 15.6103C0.0735219 15.4494 0.0106708 15.2658 0.00124331 15.0769C-0.00818416 14.888 0.0361251 14.7 0.129963 14.5309L2.16841 10.8558V7.05969ZM8.06224 16.1364C8.25864 16.443 8.54111 16.6976 8.88125 16.8747C9.2214 17.0517 9.60724 17.1449 10 17.1449C10.3928 17.1449 10.7786 17.0517 11.1187 16.8747C11.4589 16.6976 11.7414 16.443 11.9378 16.1364H8.06224ZM10 2.01705C8.51638 2.01705 7.09353 2.54833 6.04445 3.49401C4.99537 4.43968 4.40601 5.7223 4.40601 7.05969V10.8558C4.40599 11.1688 4.32517 11.4774 4.16994 11.7574L2.86095 14.1194H17.1402L15.8312 11.7574C15.6756 11.4775 15.5944 11.1688 15.594 10.8558V7.05969C15.594 5.7223 15.0046 4.43968 13.9555 3.49401C12.9065 2.54833 11.4836 2.01705 10 2.01705Z" fill="#0779E4"/>
</svg>
