<svg width="26" height="25" viewBox="0 0 26 25" fill="none" xmlns="http://www.w3.org/2000/svg">
<path d="M13 0C16.3152 0 19.4946 1.31696 21.8388 3.66117C24.183 6.00537 25.5 9.18479 25.5 12.5C25.5 15.8152 24.183 18.9946 21.8388 21.3388C19.4946 23.683 16.3152 25 13 25C9.68479 25 6.50537 23.683 4.16117 21.3388C1.81696 18.9946 0.5 15.8152 0.5 12.5C0.5 9.18479 1.81696 6.00537 4.16117 3.66117C6.50537 1.31696 9.68479 0 13 0ZM14.6594 6.7375C14.6594 6.3231 14.4948 5.92567 14.2017 5.63265C13.9087 5.33962 13.5113 5.175 13.0969 5.175C12.6825 5.175 12.285 5.33962 11.992 5.63265C11.699 5.92567 11.5344 6.3231 11.5344 6.7375V11.0344H7.2375C6.8231 11.0344 6.42567 11.199 6.13265 11.492C5.83962 11.785 5.675 12.1825 5.675 12.5969C5.675 13.0113 5.83962 13.4087 6.13265 13.7017C6.42567 13.9948 6.8231 14.1594 7.2375 14.1594H11.5344V18.4563C11.5344 18.8707 11.699 19.2681 11.992 19.5611C12.285 19.8541 12.6825 20.0188 13.0969 20.0188C13.5113 20.0188 13.9087 19.8541 14.2017 19.5611C14.4948 19.2681 14.6594 18.8707 14.6594 18.4563V14.1594H18.9563C19.3707 14.1594 19.7681 13.9948 20.0611 13.7017C20.3541 13.4087 20.5188 13.0113 20.5188 12.5969C20.5188 12.1825 20.3541 11.785 20.0611 11.492C19.7681 11.199 19.3707 11.0344 18.9563 11.0344H14.6594V6.7375Z" fill="#0779E4"/>
</svg>
