<svg width="24" height="24" viewBox="0 0 24 24" fill="none" xmlns="http://www.w3.org/2000/svg">
<path d="M23.589 22.261L21.487 20.16C21.9298 19.484 22.2014 18.7105 22.2783 17.9061C22.3552 17.1017 22.2352 16.2906 21.9285 15.543C21.6218 14.7954 21.1378 14.1337 20.5181 13.615C19.8985 13.0963 19.1619 12.7363 18.372 12.566L18.339 12.56V8.491C18.34 8.25491 18.2575 8.02607 18.106 7.845L18.107 7.847V7.842L18.047 7.776L18.039 7.767L18.012 7.74L10.572 0.299996L10.507 0.240996L10.481 0.222996L10.431 0.184996L10.406 0.166996L10.352 0.132996L10.329 0.120996C10.3063 0.107662 10.2813 0.0953289 10.254 0.0839956L10.222 0.0709956L10.171 0.0529956L10.135 0.0419956L10.077 0.0269956L10.049 0.0209956L9.963 0.00799561H1.015C0.746727 0.00930246 0.489769 0.116249 0.299788 0.305668C0.109807 0.495087 0.00210095 0.751727 0 1.02L0 21.397C0.000260962 21.6665 0.107155 21.9249 0.297334 22.1158C0.487512 22.3068 0.74552 22.4147 1.015 22.416H17.325C18.3003 22.4192 19.2543 22.1312 20.065 21.589L20.047 21.6L22.149 23.702C22.3428 23.8783 22.597 23.9732 22.859 23.9669C23.1209 23.9607 23.3703 23.8538 23.5555 23.6685C23.7407 23.4832 23.8474 23.2337 23.8534 22.9718C23.8595 22.7099 23.7644 22.4557 23.588 22.262L23.589 22.263V22.261ZM20.264 17.434C20.2641 17.8205 20.188 18.2033 20.0401 18.5605C19.8923 18.9176 19.6755 19.2421 19.4022 19.5155C19.1289 19.7889 18.8045 20.0058 18.4474 20.1537C18.0903 20.3017 17.7075 20.3779 17.321 20.378C16.9345 20.3781 16.5517 20.302 16.1945 20.1541C15.8374 20.0063 15.5129 19.7895 15.2395 19.5162C14.9661 19.2429 14.7492 18.9185 14.6013 18.5614C14.4533 18.2043 14.3771 17.8215 14.377 17.435C14.3767 16.6543 14.6866 15.9055 15.2384 15.3533C15.7903 14.8011 16.5388 14.4908 17.3195 14.4905C18.1002 14.4902 18.849 14.8001 19.4012 15.3519C19.9534 15.9037 20.2637 16.6533 20.264 17.434ZM10.868 3.478L14.861 7.472H10.868V3.478ZM2.038 2.038H8.831V8.491C8.831 9.054 9.287 9.51 9.85 9.51H16.303V12.56C14.025 13.047 12.341 15.043 12.341 17.433C12.341 18.542 12.703 19.566 13.316 20.393L13.306 20.38H2.037L2.038 2.038Z" fill="#0779E4"/>
</svg>
