<svg width="12" height="16" viewBox="0 0 12 16" fill="none" xmlns="http://www.w3.org/2000/svg">
<path fill-rule="evenodd" clip-rule="evenodd" d="M7 2.5C7 2.76522 6.89464 3.01957 6.70711 3.20711C6.51957 3.39465 6.26522 3.5 6 3.5C5.73478 3.5 5.48043 3.39465 5.29289 3.20711C5.10536 3.01957 5 2.76522 5 2.5C5 2.23479 5.10536 1.98043 5.29289 1.7929C5.48043 1.60536 5.73478 1.5 6 1.5C6.26522 1.5 6.51957 1.60536 6.70711 1.7929C6.89464 1.98043 7 2.23479 7 2.5ZM8.45 2C8.33524 1.43486 8.02864 0.926766 7.58213 0.561815C7.13562 0.196863 6.57668 -0.00250244 6 -0.00250244C5.42332 -0.00250244 4.86438 0.196863 4.41787 0.561815C3.97136 0.926766 3.66476 1.43486 3.55 2H1C0.734784 2 0.48043 2.10536 0.292893 2.2929C0.105357 2.48043 0 2.73479 0 3V15C0 15.2652 0.105357 15.5196 0.292893 15.7071C0.48043 15.8946 0.734784 16 1 16H11C11.2652 16 11.5196 15.8946 11.7071 15.7071C11.8946 15.5196 12 15.2652 12 15V3C12 2.73479 11.8946 2.48043 11.7071 2.2929C11.5196 2.10536 11.2652 2 11 2H8.45ZM6 5H3.5V3.5H1.5V14.5H10.5V3.5H8.5V5H6ZM3 7.75C3 7.55109 3.07902 7.36033 3.21967 7.21967C3.36032 7.07902 3.55109 7 3.75 7H8.25C8.44891 7 8.63968 7.07902 8.78033 7.21967C8.92098 7.36033 9 7.55109 9 7.75C9 7.94892 8.92098 8.13968 8.78033 8.28033C8.63968 8.42099 8.44891 8.5 8.25 8.5H3.75C3.55109 8.5 3.36032 8.42099 3.21967 8.28033C3.07902 8.13968 3 7.94892 3 7.75ZM3.75 9.5C3.55109 9.5 3.36032 9.57902 3.21967 9.71967C3.07902 9.86033 3 10.0511 3 10.25C3 10.4489 3.07902 10.6397 3.21967 10.7803C3.36032 10.921 3.55109 11 3.75 11H8.25C8.44891 11 8.63968 10.921 8.78033 10.7803C8.92098 10.6397 9 10.4489 9 10.25C9 10.0511 8.92098 9.86033 8.78033 9.71967C8.63968 9.57902 8.44891 9.5 8.25 9.5H3.75Z" fill="#0779E4"/>
</svg>
