<svg width="100" height="100" viewBox="0 0 100 100" fill="none" xmlns="http://www.w3.org/2000/svg">
<path d="M29.1667 55.2084C28.3379 55.2084 27.543 55.5376 26.957 56.1237C26.3709 56.7097 26.0417 57.5046 26.0417 58.3334C26.0417 59.1622 26.3709 59.957 26.957 60.5431C27.543 61.1291 28.3379 61.4584 29.1667 61.4584H45.8333C46.6621 61.4584 47.457 61.1291 48.043 60.5431C48.6291 59.957 48.9583 59.1622 48.9583 58.3334C48.9583 57.5046 48.6291 56.7097 48.043 56.1237C47.457 55.5376 46.6621 55.2084 45.8333 55.2084H29.1667ZM29.1667 69.7917C28.3379 69.7917 27.543 70.1209 26.957 70.707C26.3709 71.293 26.0417 72.0879 26.0417 72.9167C26.0417 73.7455 26.3709 74.5404 26.957 75.1264C27.543 75.7125 28.3379 76.0417 29.1667 76.0417H54.1667C54.9955 76.0417 55.7903 75.7125 56.3764 75.1264C56.9624 74.5404 57.2917 73.7455 57.2917 72.9167C57.2917 72.0879 56.9624 71.293 56.3764 70.707C55.7903 70.1209 54.9955 69.7917 54.1667 69.7917H29.1667Z" fill="#0779E4"/>
<path fill-rule="evenodd" clip-rule="evenodd" d="M72.9167 45.8334C64.0792 45.8334 59.6583 45.8334 56.9125 43.0875C54.1667 40.3417 54.1667 35.9209 54.1667 27.0834C54.1667 18.2459 54.1667 13.825 56.9125 11.0792C59.6583 8.33337 64.0792 8.33337 72.9167 8.33337C81.7542 8.33337 86.175 8.33337 88.9208 11.0792C91.6667 13.825 91.6667 18.2459 91.6667 27.0834C91.6667 35.9209 91.6667 40.3417 88.9208 43.0875C86.175 45.8334 81.7542 45.8334 72.9167 45.8334ZM62.375 16.5417C62.9609 15.9565 63.7552 15.6278 64.5833 15.6278C65.4115 15.6278 66.2057 15.9565 66.7917 16.5417L72.9167 22.6667L79.0417 16.5417C79.3278 16.2347 79.6728 15.9884 80.0561 15.8176C80.4394 15.6468 80.8532 15.555 81.2728 15.5476C81.6924 15.5402 82.1092 15.6174 82.4983 15.7745C82.8874 15.9317 83.2409 16.1656 83.5377 16.4624C83.8344 16.7591 84.0683 17.1126 84.2255 17.5017C84.3827 17.8908 84.4599 18.3076 84.4525 18.7272C84.4451 19.1468 84.3532 19.5606 84.1824 19.9439C84.0116 20.3273 83.7654 20.6723 83.4583 20.9584L77.3333 27.0834L83.4583 33.2084C84.0103 33.8008 84.3108 34.5843 84.2966 35.3939C84.2823 36.2035 83.9543 36.9759 83.3818 37.5485C82.8092 38.121 82.0368 38.449 81.2272 38.4633C80.4176 38.4776 79.6341 38.177 79.0417 37.625L72.9167 31.5L66.7917 37.625C66.5056 37.9321 66.1606 38.1783 65.7772 38.3491C65.3939 38.5199 64.9801 38.6118 64.5605 38.6192C64.1409 38.6266 63.7241 38.5494 63.335 38.3922C62.9459 38.235 62.5924 38.0011 62.2957 37.7044C61.9989 37.4076 61.765 37.0541 61.6078 36.665C61.4507 36.2759 61.3735 35.8591 61.3809 35.4395C61.3883 35.0199 61.4801 34.6061 61.6509 34.2228C61.8217 33.8395 62.068 33.4945 62.375 33.2084L68.5 27.0834L62.375 20.9584C61.7898 20.3724 61.4611 19.5782 61.4611 18.75C61.4611 17.9219 61.7898 17.1276 62.375 16.5417Z" fill="#0779E4"/>
<path opacity="0.5" d="M85.5667 85.5667C91.6667 79.4584 91.6667 69.6417 91.6667 50C91.6667 44.3417 91.6667 39.5 91.5208 35.325C91.2792 39.0084 90.6333 41.375 88.9208 43.0875C86.175 45.8334 81.7542 45.8334 72.9167 45.8334C64.0792 45.8334 59.6583 45.8334 56.9125 43.0875C54.1667 40.3417 54.1667 35.9209 54.1667 27.0834C54.1667 18.2459 54.1667 13.825 56.9125 11.0792C58.625 9.36671 60.9917 8.72087 64.675 8.47921C60.5 8.33337 55.6583 8.33337 50 8.33337C30.3583 8.33337 20.5375 8.33337 14.4333 14.4334C8.33333 20.5417 8.33333 30.3584 8.33333 50C8.33333 69.6417 8.33333 79.4625 14.4333 85.5625C20.5417 91.6667 30.3583 91.6667 50 91.6667C69.6417 91.6667 79.4625 91.6667 85.5625 85.5625" fill="#0779E4"/>
</svg>
