<svg width="20" height="19" viewBox="0 0 20 19" fill="none" xmlns="http://www.w3.org/2000/svg">
<path fill-rule="evenodd" clip-rule="evenodd" d="M8.00003 0.25C7.66872 0.249837 7.34417 0.343726 7.06412 0.52075C6.78407 0.697774 6.56002 0.950659 6.41803 1.25C5.73403 1.256 5.20203 1.287 4.72603 1.473C4.15781 1.69527 3.66362 2.07301 3.30003 2.563C2.93303 3.056 2.76003 3.69 2.52403 4.561L2.47703 4.731L1.96403 7.695C1.77937 7.82233 1.61737 7.97533 1.47803 8.154C0.577033 9.307 1.00603 11.024 1.86403 14.455C2.40903 16.638 2.68203 17.729 3.49603 18.365C4.31003 19 5.43503 19 7.68503 19H12.315C14.565 19 15.69 19 16.504 18.365C17.318 17.729 17.59 16.638 18.136 14.455C18.994 11.023 19.423 9.308 18.522 8.154C18.3841 7.97671 18.2199 7.82157 18.035 7.694L17.522 4.732L17.476 4.562C17.239 3.69 17.066 3.056 16.7 2.562C16.3363 2.07238 15.8421 1.695 15.274 1.473C14.798 1.287 14.265 1.256 13.582 1.251C13.4402 0.951472 13.2162 0.69838 12.9361 0.521172C12.6561 0.343965 12.3315 0.249927 12 0.25H8.00003ZM16.418 7.146L16.056 5.058C15.773 4.018 15.67 3.691 15.496 3.457C15.3002 3.19311 15.0341 2.98968 14.728 2.87C14.508 2.784 14.242 2.759 13.58 2.752C13.4379 3.05066 13.214 3.30293 12.9344 3.47956C12.6548 3.6562 12.3308 3.74996 12 3.75H8.00003C7.66928 3.74996 7.3453 3.6562 7.06566 3.47956C6.78602 3.30293 6.56216 3.05066 6.42003 2.752C5.75703 2.759 5.49203 2.784 5.27203 2.87C4.966 2.98968 4.69984 3.19311 4.50403 3.457C4.33003 3.691 4.22703 4.017 3.94403 5.057L3.58203 7.146C4.58003 7 5.91003 7 7.68503 7H12.315C14.09 7 15.42 7 16.418 7.146ZM6.00003 10.25C6.19895 10.25 6.38971 10.329 6.53036 10.4697C6.67101 10.6103 6.75003 10.8011 6.75003 11V15C6.75003 15.1989 6.67101 15.3897 6.53036 15.5303C6.38971 15.671 6.19895 15.75 6.00003 15.75C5.80112 15.75 5.61036 15.671 5.4697 15.5303C5.32905 15.3897 5.25003 15.1989 5.25003 15V11C5.25003 10.8011 5.32905 10.6103 5.4697 10.4697C5.61036 10.329 5.80112 10.25 6.00003 10.25ZM14.75 11C14.75 10.8011 14.671 10.6103 14.5304 10.4697C14.3897 10.329 14.1989 10.25 14 10.25C13.8011 10.25 13.6104 10.329 13.4697 10.4697C13.3291 10.6103 13.25 10.8011 13.25 11V15C13.25 15.1989 13.3291 15.3897 13.4697 15.5303C13.6104 15.671 13.8011 15.75 14 15.75C14.1989 15.75 14.3897 15.671 14.5304 15.5303C14.671 15.3897 14.75 15.1989 14.75 15V11ZM10 10.25C10.1989 10.25 10.3897 10.329 10.5304 10.4697C10.671 10.6103 10.75 10.8011 10.75 11V15C10.75 15.1989 10.671 15.3897 10.5304 15.5303C10.3897 15.671 10.1989 15.75 10 15.75C9.80112 15.75 9.61036 15.671 9.4697 15.5303C9.32905 15.3897 9.25003 15.1989 9.25003 15V11C9.25003 10.8011 9.32905 10.6103 9.4697 10.4697C9.61036 10.329 9.80112 10.25 10 10.25Z" fill="#0779E4"/>
</svg>
